<mxfile host="app.diagrams.net" modified="2021-03-08T06:26:18.663Z" agent="5.0 (Windows NT 10.0; Win64; x64) AppleWebKit/537.36 (KHTML, like Gecko) Chrome/88.0.4324.190 Safari/537.36" etag="IwQH3gEx9TydzdjlyS0P" version="14.4.4" type="github">
  <diagram id="HMQwzvxUV8JuJhJud29F" name="第 1 页">
    <mxGraphModel dx="981" dy="514" grid="1" gridSize="10" guides="1" tooltips="1" connect="1" arrows="1" fold="1" page="1" pageScale="1" pageWidth="827" pageHeight="1169" math="0" shadow="0">
      <root>
        <mxCell id="0" />
        <mxCell id="1" parent="0" />
        <mxCell id="52IHXAo2oJdhzXuVyBYH-1" value="" style="rounded=1;whiteSpace=wrap;html=1;fillColor=#ffcc99;strokeColor=#36393d;" vertex="1" parent="1">
          <mxGeometry x="141.65397877984086" y="434.36031148220394" width="70.42440318302387" height="61.78776193281759" as="geometry" />
        </mxCell>
        <mxCell id="52IHXAo2oJdhzXuVyBYH-2" value="" style="whiteSpace=wrap;html=1;aspect=fixed;" vertex="1" parent="1">
          <mxGeometry x="76.94960212201592" y="443.1277944514974" width="43.819628647214856" height="43.819628647214856" as="geometry" />
        </mxCell>
        <mxCell id="52IHXAo2oJdhzXuVyBYH-3" value="输入" style="text;html=1;align=center;verticalAlign=middle;resizable=0;points=[];autosize=1;fontSize=10.5;" vertex="1" parent="1">
          <mxGeometry x="78.85954907161803" y="423.1234860202704" width="40" height="20" as="geometry" />
        </mxCell>
        <mxCell id="52IHXAo2oJdhzXuVyBYH-4" value="" style="endArrow=classic;html=1;" edge="1" parent="1">
          <mxGeometry x="30" y="320" width="50" height="50" as="geometry">
            <mxPoint x="123.89920424403181" y="464.8590289673334" as="sourcePoint" />
            <mxPoint x="139.54907161803703" y="464.62983414819155" as="targetPoint" />
          </mxGeometry>
        </mxCell>
        <mxCell id="52IHXAo2oJdhzXuVyBYH-5" value="&lt;font style=&quot;font-size: 10.5px&quot;&gt;三值化PCANet&lt;/font&gt;" style="text;html=1;align=center;verticalAlign=middle;resizable=0;points=[];autosize=1;fontSize=10.5;" vertex="1" parent="1">
          <mxGeometry x="131.73153846153846" y="414.8369467691019" width="90" height="20" as="geometry" />
        </mxCell>
        <mxCell id="52IHXAo2oJdhzXuVyBYH-6" value="" style="shape=table;html=1;whiteSpace=wrap;startSize=0;container=1;collapsible=0;childLayout=tableLayout;" vertex="1" parent="1">
          <mxGeometry x="225.6233421750663" y="409.3069467691019" width="93.89920424403184" height="94.83923550701088" as="geometry" />
        </mxCell>
        <mxCell id="52IHXAo2oJdhzXuVyBYH-7" value="" style="shape=partialRectangle;html=1;whiteSpace=wrap;collapsible=0;dropTarget=0;pointerEvents=0;fillColor=none;top=0;left=0;bottom=0;right=0;points=[[0,0.5],[1,0.5]];portConstraint=eastwest;" vertex="1" parent="52IHXAo2oJdhzXuVyBYH-6">
          <mxGeometry width="93.89920424403184" height="13" as="geometry" />
        </mxCell>
        <mxCell id="52IHXAo2oJdhzXuVyBYH-8" value="" style="shape=partialRectangle;html=1;whiteSpace=wrap;connectable=0;overflow=hidden;fillColor=none;top=0;left=0;bottom=0;right=0;" vertex="1" parent="52IHXAo2oJdhzXuVyBYH-7">
          <mxGeometry width="13" height="13" as="geometry" />
        </mxCell>
        <mxCell id="52IHXAo2oJdhzXuVyBYH-9" value="" style="shape=partialRectangle;html=1;whiteSpace=wrap;connectable=0;overflow=hidden;fillColor=none;top=0;left=0;bottom=0;right=0;" vertex="1" parent="52IHXAo2oJdhzXuVyBYH-7">
          <mxGeometry x="13" width="13" height="13" as="geometry" />
        </mxCell>
        <mxCell id="52IHXAo2oJdhzXuVyBYH-10" value="" style="shape=partialRectangle;html=1;whiteSpace=wrap;connectable=0;overflow=hidden;fillColor=none;top=0;left=0;bottom=0;right=0;" vertex="1" parent="52IHXAo2oJdhzXuVyBYH-7">
          <mxGeometry x="26" width="14" height="13" as="geometry" />
        </mxCell>
        <mxCell id="52IHXAo2oJdhzXuVyBYH-11" value="" style="shape=partialRectangle;html=1;whiteSpace=wrap;connectable=0;overflow=hidden;fillColor=none;top=0;left=0;bottom=0;right=0;" vertex="1" parent="52IHXAo2oJdhzXuVyBYH-7">
          <mxGeometry x="40" width="14" height="13" as="geometry" />
        </mxCell>
        <mxCell id="52IHXAo2oJdhzXuVyBYH-12" value="" style="shape=partialRectangle;html=1;whiteSpace=wrap;connectable=0;overflow=hidden;fillColor=none;top=0;left=0;bottom=0;right=0;" vertex="1" parent="52IHXAo2oJdhzXuVyBYH-7">
          <mxGeometry x="54" width="14" height="13" as="geometry" />
        </mxCell>
        <mxCell id="52IHXAo2oJdhzXuVyBYH-13" value="" style="shape=partialRectangle;html=1;whiteSpace=wrap;connectable=0;overflow=hidden;fillColor=none;top=0;left=0;bottom=0;right=0;" vertex="1" parent="52IHXAo2oJdhzXuVyBYH-7">
          <mxGeometry x="68" width="13" height="13" as="geometry" />
        </mxCell>
        <mxCell id="52IHXAo2oJdhzXuVyBYH-14" value="" style="shape=partialRectangle;html=1;whiteSpace=wrap;connectable=0;overflow=hidden;fillColor=none;top=0;left=0;bottom=0;right=0;" vertex="1" parent="52IHXAo2oJdhzXuVyBYH-7">
          <mxGeometry x="81" width="13" height="13" as="geometry" />
        </mxCell>
        <mxCell id="52IHXAo2oJdhzXuVyBYH-15" value="" style="shape=partialRectangle;html=1;whiteSpace=wrap;collapsible=0;dropTarget=0;pointerEvents=0;fillColor=none;top=0;left=0;bottom=0;right=0;points=[[0,0.5],[1,0.5]];portConstraint=eastwest;" vertex="1" parent="52IHXAo2oJdhzXuVyBYH-6">
          <mxGeometry y="13" width="93.89920424403184" height="14" as="geometry" />
        </mxCell>
        <mxCell id="52IHXAo2oJdhzXuVyBYH-16" value="" style="shape=partialRectangle;html=1;whiteSpace=wrap;connectable=0;overflow=hidden;fillColor=none;top=0;left=0;bottom=0;right=0;" vertex="1" parent="52IHXAo2oJdhzXuVyBYH-15">
          <mxGeometry width="13" height="14" as="geometry" />
        </mxCell>
        <mxCell id="52IHXAo2oJdhzXuVyBYH-17" value="" style="shape=partialRectangle;html=1;whiteSpace=wrap;connectable=0;overflow=hidden;fillColor=none;top=0;left=0;bottom=0;right=0;" vertex="1" parent="52IHXAo2oJdhzXuVyBYH-15">
          <mxGeometry x="13" width="13" height="14" as="geometry" />
        </mxCell>
        <mxCell id="52IHXAo2oJdhzXuVyBYH-18" value="" style="shape=partialRectangle;html=1;whiteSpace=wrap;connectable=0;overflow=hidden;fillColor=#fff2cc;top=0;left=0;bottom=0;right=0;strokeColor=#d6b656;" vertex="1" parent="52IHXAo2oJdhzXuVyBYH-15">
          <mxGeometry x="26" width="14" height="14" as="geometry" />
        </mxCell>
        <mxCell id="52IHXAo2oJdhzXuVyBYH-19" value="" style="shape=partialRectangle;html=1;whiteSpace=wrap;connectable=0;overflow=hidden;fillColor=none;top=0;left=0;bottom=0;right=0;" vertex="1" parent="52IHXAo2oJdhzXuVyBYH-15">
          <mxGeometry x="40" width="14" height="14" as="geometry" />
        </mxCell>
        <mxCell id="52IHXAo2oJdhzXuVyBYH-20" value="" style="shape=partialRectangle;html=1;whiteSpace=wrap;connectable=0;overflow=hidden;fillColor=none;top=0;left=0;bottom=0;right=0;" vertex="1" parent="52IHXAo2oJdhzXuVyBYH-15">
          <mxGeometry x="54" width="14" height="14" as="geometry" />
        </mxCell>
        <mxCell id="52IHXAo2oJdhzXuVyBYH-21" value="" style="shape=partialRectangle;html=1;whiteSpace=wrap;connectable=0;overflow=hidden;fillColor=none;top=0;left=0;bottom=0;right=0;" vertex="1" parent="52IHXAo2oJdhzXuVyBYH-15">
          <mxGeometry x="68" width="13" height="14" as="geometry" />
        </mxCell>
        <mxCell id="52IHXAo2oJdhzXuVyBYH-22" value="" style="shape=partialRectangle;html=1;whiteSpace=wrap;connectable=0;overflow=hidden;fillColor=none;top=0;left=0;bottom=0;right=0;" vertex="1" parent="52IHXAo2oJdhzXuVyBYH-15">
          <mxGeometry x="81" width="13" height="14" as="geometry" />
        </mxCell>
        <mxCell id="52IHXAo2oJdhzXuVyBYH-23" value="" style="shape=partialRectangle;html=1;whiteSpace=wrap;collapsible=0;dropTarget=0;pointerEvents=0;fillColor=none;top=0;left=0;bottom=0;right=0;points=[[0,0.5],[1,0.5]];portConstraint=eastwest;" vertex="1" parent="52IHXAo2oJdhzXuVyBYH-6">
          <mxGeometry y="27" width="93.89920424403184" height="13" as="geometry" />
        </mxCell>
        <mxCell id="52IHXAo2oJdhzXuVyBYH-24" value="" style="shape=partialRectangle;html=1;whiteSpace=wrap;connectable=0;overflow=hidden;fillColor=none;top=0;left=0;bottom=0;right=0;" vertex="1" parent="52IHXAo2oJdhzXuVyBYH-23">
          <mxGeometry width="13" height="13" as="geometry" />
        </mxCell>
        <mxCell id="52IHXAo2oJdhzXuVyBYH-25" value="" style="shape=partialRectangle;html=1;whiteSpace=wrap;connectable=0;overflow=hidden;fillColor=none;top=0;left=0;bottom=0;right=0;" vertex="1" parent="52IHXAo2oJdhzXuVyBYH-23">
          <mxGeometry x="13" width="13" height="13" as="geometry" />
        </mxCell>
        <mxCell id="52IHXAo2oJdhzXuVyBYH-26" value="" style="shape=partialRectangle;html=1;whiteSpace=wrap;connectable=0;overflow=hidden;top=0;left=0;bottom=0;right=0;strokeColor=#d79b00;fillColor=none;" vertex="1" parent="52IHXAo2oJdhzXuVyBYH-23">
          <mxGeometry x="26" width="14" height="13" as="geometry" />
        </mxCell>
        <mxCell id="52IHXAo2oJdhzXuVyBYH-27" value="" style="shape=partialRectangle;html=1;whiteSpace=wrap;connectable=0;overflow=hidden;fillColor=none;top=0;left=0;bottom=0;right=0;" vertex="1" parent="52IHXAo2oJdhzXuVyBYH-23">
          <mxGeometry x="40" width="14" height="13" as="geometry" />
        </mxCell>
        <mxCell id="52IHXAo2oJdhzXuVyBYH-28" value="" style="shape=partialRectangle;html=1;whiteSpace=wrap;connectable=0;overflow=hidden;fillColor=none;top=0;left=0;bottom=0;right=0;" vertex="1" parent="52IHXAo2oJdhzXuVyBYH-23">
          <mxGeometry x="54" width="14" height="13" as="geometry" />
        </mxCell>
        <mxCell id="52IHXAo2oJdhzXuVyBYH-29" value="" style="shape=partialRectangle;html=1;whiteSpace=wrap;connectable=0;overflow=hidden;fillColor=none;top=0;left=0;bottom=0;right=0;" vertex="1" parent="52IHXAo2oJdhzXuVyBYH-23">
          <mxGeometry x="68" width="13" height="13" as="geometry" />
        </mxCell>
        <mxCell id="52IHXAo2oJdhzXuVyBYH-30" value="" style="shape=partialRectangle;html=1;whiteSpace=wrap;connectable=0;overflow=hidden;fillColor=none;top=0;left=0;bottom=0;right=0;" vertex="1" parent="52IHXAo2oJdhzXuVyBYH-23">
          <mxGeometry x="81" width="13" height="13" as="geometry" />
        </mxCell>
        <mxCell id="52IHXAo2oJdhzXuVyBYH-31" value="" style="shape=partialRectangle;html=1;whiteSpace=wrap;collapsible=0;dropTarget=0;pointerEvents=0;fillColor=none;top=0;left=0;bottom=0;right=0;points=[[0,0.5],[1,0.5]];portConstraint=eastwest;" vertex="1" parent="52IHXAo2oJdhzXuVyBYH-6">
          <mxGeometry y="40" width="93.89920424403184" height="14" as="geometry" />
        </mxCell>
        <mxCell id="52IHXAo2oJdhzXuVyBYH-32" value="" style="shape=partialRectangle;html=1;whiteSpace=wrap;connectable=0;overflow=hidden;fillColor=none;top=0;left=0;bottom=0;right=0;" vertex="1" parent="52IHXAo2oJdhzXuVyBYH-31">
          <mxGeometry width="13" height="14" as="geometry" />
        </mxCell>
        <mxCell id="52IHXAo2oJdhzXuVyBYH-33" value="" style="shape=partialRectangle;html=1;whiteSpace=wrap;connectable=0;overflow=hidden;fillColor=none;top=0;left=0;bottom=0;right=0;" vertex="1" parent="52IHXAo2oJdhzXuVyBYH-31">
          <mxGeometry x="13" width="13" height="14" as="geometry" />
        </mxCell>
        <mxCell id="52IHXAo2oJdhzXuVyBYH-34" value="" style="shape=partialRectangle;html=1;whiteSpace=wrap;connectable=0;overflow=hidden;fillColor=none;top=0;left=0;bottom=0;right=0;" vertex="1" parent="52IHXAo2oJdhzXuVyBYH-31">
          <mxGeometry x="26" width="14" height="14" as="geometry" />
        </mxCell>
        <mxCell id="52IHXAo2oJdhzXuVyBYH-35" value="" style="shape=partialRectangle;html=1;whiteSpace=wrap;connectable=0;overflow=hidden;fillColor=none;top=0;left=0;bottom=0;right=0;" vertex="1" parent="52IHXAo2oJdhzXuVyBYH-31">
          <mxGeometry x="40" width="14" height="14" as="geometry" />
        </mxCell>
        <mxCell id="52IHXAo2oJdhzXuVyBYH-36" value="" style="shape=partialRectangle;html=1;whiteSpace=wrap;connectable=0;overflow=hidden;fillColor=none;top=0;left=0;bottom=0;right=0;" vertex="1" parent="52IHXAo2oJdhzXuVyBYH-31">
          <mxGeometry x="54" width="14" height="14" as="geometry" />
        </mxCell>
        <mxCell id="52IHXAo2oJdhzXuVyBYH-37" value="" style="shape=partialRectangle;html=1;whiteSpace=wrap;connectable=0;overflow=hidden;fillColor=none;top=0;left=0;bottom=0;right=0;" vertex="1" parent="52IHXAo2oJdhzXuVyBYH-31">
          <mxGeometry x="68" width="13" height="14" as="geometry" />
        </mxCell>
        <mxCell id="52IHXAo2oJdhzXuVyBYH-38" value="" style="shape=partialRectangle;html=1;whiteSpace=wrap;connectable=0;overflow=hidden;fillColor=none;top=0;left=0;bottom=0;right=0;" vertex="1" parent="52IHXAo2oJdhzXuVyBYH-31">
          <mxGeometry x="81" width="13" height="14" as="geometry" />
        </mxCell>
        <mxCell id="52IHXAo2oJdhzXuVyBYH-39" value="" style="shape=partialRectangle;html=1;whiteSpace=wrap;collapsible=0;dropTarget=0;pointerEvents=0;fillColor=none;top=0;left=0;bottom=0;right=0;points=[[0,0.5],[1,0.5]];portConstraint=eastwest;" vertex="1" parent="52IHXAo2oJdhzXuVyBYH-6">
          <mxGeometry y="54" width="93.89920424403184" height="14" as="geometry" />
        </mxCell>
        <mxCell id="52IHXAo2oJdhzXuVyBYH-40" value="" style="shape=partialRectangle;html=1;whiteSpace=wrap;connectable=0;overflow=hidden;fillColor=none;top=0;left=0;bottom=0;right=0;" vertex="1" parent="52IHXAo2oJdhzXuVyBYH-39">
          <mxGeometry width="13" height="14" as="geometry" />
        </mxCell>
        <mxCell id="52IHXAo2oJdhzXuVyBYH-41" value="" style="shape=partialRectangle;html=1;whiteSpace=wrap;connectable=0;overflow=hidden;fillColor=none;top=0;left=0;bottom=0;right=0;" vertex="1" parent="52IHXAo2oJdhzXuVyBYH-39">
          <mxGeometry x="13" width="13" height="14" as="geometry" />
        </mxCell>
        <mxCell id="52IHXAo2oJdhzXuVyBYH-42" value="" style="shape=partialRectangle;html=1;whiteSpace=wrap;connectable=0;overflow=hidden;fillColor=none;top=0;left=0;bottom=0;right=0;" vertex="1" parent="52IHXAo2oJdhzXuVyBYH-39">
          <mxGeometry x="26" width="14" height="14" as="geometry" />
        </mxCell>
        <mxCell id="52IHXAo2oJdhzXuVyBYH-43" value="" style="shape=partialRectangle;html=1;whiteSpace=wrap;connectable=0;overflow=hidden;fillColor=none;top=0;left=0;bottom=0;right=0;" vertex="1" parent="52IHXAo2oJdhzXuVyBYH-39">
          <mxGeometry x="40" width="14" height="14" as="geometry" />
        </mxCell>
        <mxCell id="52IHXAo2oJdhzXuVyBYH-44" value="" style="shape=partialRectangle;html=1;whiteSpace=wrap;connectable=0;overflow=hidden;fillColor=none;top=0;left=0;bottom=0;right=0;" vertex="1" parent="52IHXAo2oJdhzXuVyBYH-39">
          <mxGeometry x="54" width="14" height="14" as="geometry" />
        </mxCell>
        <mxCell id="52IHXAo2oJdhzXuVyBYH-45" value="" style="shape=partialRectangle;html=1;whiteSpace=wrap;connectable=0;overflow=hidden;fillColor=none;top=0;left=0;bottom=0;right=0;" vertex="1" parent="52IHXAo2oJdhzXuVyBYH-39">
          <mxGeometry x="68" width="13" height="14" as="geometry" />
        </mxCell>
        <mxCell id="52IHXAo2oJdhzXuVyBYH-46" value="" style="shape=partialRectangle;html=1;whiteSpace=wrap;connectable=0;overflow=hidden;fillColor=none;top=0;left=0;bottom=0;right=0;" vertex="1" parent="52IHXAo2oJdhzXuVyBYH-39">
          <mxGeometry x="81" width="13" height="14" as="geometry" />
        </mxCell>
        <mxCell id="52IHXAo2oJdhzXuVyBYH-47" value="" style="shape=partialRectangle;html=1;whiteSpace=wrap;collapsible=0;dropTarget=0;pointerEvents=0;fillColor=none;top=0;left=0;bottom=0;right=0;points=[[0,0.5],[1,0.5]];portConstraint=eastwest;" vertex="1" parent="52IHXAo2oJdhzXuVyBYH-6">
          <mxGeometry y="68" width="93.89920424403184" height="14" as="geometry" />
        </mxCell>
        <mxCell id="52IHXAo2oJdhzXuVyBYH-48" value="" style="shape=partialRectangle;html=1;whiteSpace=wrap;connectable=0;overflow=hidden;fillColor=none;top=0;left=0;bottom=0;right=0;" vertex="1" parent="52IHXAo2oJdhzXuVyBYH-47">
          <mxGeometry width="13" height="14" as="geometry" />
        </mxCell>
        <mxCell id="52IHXAo2oJdhzXuVyBYH-49" value="" style="shape=partialRectangle;html=1;whiteSpace=wrap;connectable=0;overflow=hidden;fillColor=none;top=0;left=0;bottom=0;right=0;" vertex="1" parent="52IHXAo2oJdhzXuVyBYH-47">
          <mxGeometry x="13" width="13" height="14" as="geometry" />
        </mxCell>
        <mxCell id="52IHXAo2oJdhzXuVyBYH-50" value="" style="shape=partialRectangle;html=1;whiteSpace=wrap;connectable=0;overflow=hidden;fillColor=none;top=0;left=0;bottom=0;right=0;" vertex="1" parent="52IHXAo2oJdhzXuVyBYH-47">
          <mxGeometry x="26" width="14" height="14" as="geometry" />
        </mxCell>
        <mxCell id="52IHXAo2oJdhzXuVyBYH-51" value="" style="shape=partialRectangle;html=1;whiteSpace=wrap;connectable=0;overflow=hidden;fillColor=none;top=0;left=0;bottom=0;right=0;" vertex="1" parent="52IHXAo2oJdhzXuVyBYH-47">
          <mxGeometry x="40" width="14" height="14" as="geometry" />
        </mxCell>
        <mxCell id="52IHXAo2oJdhzXuVyBYH-52" value="" style="shape=partialRectangle;html=1;whiteSpace=wrap;connectable=0;overflow=hidden;fillColor=none;top=0;left=0;bottom=0;right=0;" vertex="1" parent="52IHXAo2oJdhzXuVyBYH-47">
          <mxGeometry x="54" width="14" height="14" as="geometry" />
        </mxCell>
        <mxCell id="52IHXAo2oJdhzXuVyBYH-53" value="" style="shape=partialRectangle;html=1;whiteSpace=wrap;connectable=0;overflow=hidden;fillColor=none;top=0;left=0;bottom=0;right=0;" vertex="1" parent="52IHXAo2oJdhzXuVyBYH-47">
          <mxGeometry x="68" width="13" height="14" as="geometry" />
        </mxCell>
        <mxCell id="52IHXAo2oJdhzXuVyBYH-54" value="" style="shape=partialRectangle;html=1;whiteSpace=wrap;connectable=0;overflow=hidden;fillColor=none;top=0;left=0;bottom=0;right=0;" vertex="1" parent="52IHXAo2oJdhzXuVyBYH-47">
          <mxGeometry x="81" width="13" height="14" as="geometry" />
        </mxCell>
        <mxCell id="52IHXAo2oJdhzXuVyBYH-55" value="" style="shape=partialRectangle;html=1;whiteSpace=wrap;collapsible=0;dropTarget=0;pointerEvents=0;fillColor=none;top=0;left=0;bottom=0;right=0;points=[[0,0.5],[1,0.5]];portConstraint=eastwest;" vertex="1" parent="52IHXAo2oJdhzXuVyBYH-6">
          <mxGeometry y="82" width="93.89920424403184" height="13" as="geometry" />
        </mxCell>
        <mxCell id="52IHXAo2oJdhzXuVyBYH-56" value="" style="shape=partialRectangle;html=1;whiteSpace=wrap;connectable=0;overflow=hidden;fillColor=none;top=0;left=0;bottom=0;right=0;" vertex="1" parent="52IHXAo2oJdhzXuVyBYH-55">
          <mxGeometry width="13" height="13" as="geometry" />
        </mxCell>
        <mxCell id="52IHXAo2oJdhzXuVyBYH-57" value="" style="shape=partialRectangle;html=1;whiteSpace=wrap;connectable=0;overflow=hidden;fillColor=none;top=0;left=0;bottom=0;right=0;" vertex="1" parent="52IHXAo2oJdhzXuVyBYH-55">
          <mxGeometry x="13" width="13" height="13" as="geometry" />
        </mxCell>
        <mxCell id="52IHXAo2oJdhzXuVyBYH-58" value="" style="shape=partialRectangle;html=1;whiteSpace=wrap;connectable=0;overflow=hidden;fillColor=none;top=0;left=0;bottom=0;right=0;" vertex="1" parent="52IHXAo2oJdhzXuVyBYH-55">
          <mxGeometry x="26" width="14" height="13" as="geometry" />
        </mxCell>
        <mxCell id="52IHXAo2oJdhzXuVyBYH-59" value="" style="shape=partialRectangle;html=1;whiteSpace=wrap;connectable=0;overflow=hidden;fillColor=none;top=0;left=0;bottom=0;right=0;" vertex="1" parent="52IHXAo2oJdhzXuVyBYH-55">
          <mxGeometry x="40" width="14" height="13" as="geometry" />
        </mxCell>
        <mxCell id="52IHXAo2oJdhzXuVyBYH-60" value="" style="shape=partialRectangle;html=1;whiteSpace=wrap;connectable=0;overflow=hidden;fillColor=none;top=0;left=0;bottom=0;right=0;" vertex="1" parent="52IHXAo2oJdhzXuVyBYH-55">
          <mxGeometry x="54" width="14" height="13" as="geometry" />
        </mxCell>
        <mxCell id="52IHXAo2oJdhzXuVyBYH-61" value="" style="shape=partialRectangle;html=1;whiteSpace=wrap;connectable=0;overflow=hidden;fillColor=none;top=0;left=0;bottom=0;right=0;" vertex="1" parent="52IHXAo2oJdhzXuVyBYH-55">
          <mxGeometry x="68" width="13" height="13" as="geometry" />
        </mxCell>
        <mxCell id="52IHXAo2oJdhzXuVyBYH-62" value="" style="shape=partialRectangle;html=1;whiteSpace=wrap;connectable=0;overflow=hidden;fillColor=none;top=0;left=0;bottom=0;right=0;" vertex="1" parent="52IHXAo2oJdhzXuVyBYH-55">
          <mxGeometry x="81" width="13" height="13" as="geometry" />
        </mxCell>
        <mxCell id="52IHXAo2oJdhzXuVyBYH-63" value="" style="endArrow=none;html=1;exitX=1;exitY=0;exitDx=0;exitDy=0;entryX=0;entryY=0.059;entryDx=0;entryDy=0;entryPerimeter=0;" edge="1" parent="1" source="52IHXAo2oJdhzXuVyBYH-70" target="52IHXAo2oJdhzXuVyBYH-7">
          <mxGeometry x="30" y="320" width="50" height="50" as="geometry">
            <mxPoint x="225.6233421750663" y="504.14618227611277" as="sourcePoint" />
            <mxPoint x="233.44827586206895" y="410.0972737316603" as="targetPoint" />
          </mxGeometry>
        </mxCell>
        <mxCell id="52IHXAo2oJdhzXuVyBYH-64" value="" style="whiteSpace=wrap;html=1;aspect=fixed;fillColor=#dae8fc;strokeColor=#6c8ebf;" vertex="1" parent="1">
          <mxGeometry x="147.3740053050398" y="449.6136218595815" width="18.559852014632916" height="18.559852014632916" as="geometry" />
        </mxCell>
        <mxCell id="52IHXAo2oJdhzXuVyBYH-65" value="" style="whiteSpace=wrap;html=1;aspect=fixed;fillColor=#dae8fc;strokeColor=#6c8ebf;" vertex="1" parent="1">
          <mxGeometry x="149.24636684651603" y="451.8850896298243" width="18.559852014632916" height="18.559852014632916" as="geometry" />
        </mxCell>
        <mxCell id="52IHXAo2oJdhzXuVyBYH-66" value="" style="whiteSpace=wrap;html=1;aspect=fixed;fillColor=#dae8fc;strokeColor=#6c8ebf;" vertex="1" parent="1">
          <mxGeometry x="151.50646098271457" y="453.59650171921726" width="18.559852014632916" height="18.559852014632916" as="geometry" />
        </mxCell>
        <mxCell id="52IHXAo2oJdhzXuVyBYH-67" value="" style="group" vertex="1" connectable="0" parent="1">
          <mxGeometry x="186.49867374005305" y="456.72656452260736" width="15.649867374005307" height="18.0036482070809" as="geometry" />
        </mxCell>
        <mxCell id="52IHXAo2oJdhzXuVyBYH-68" value="" style="whiteSpace=wrap;html=1;aspect=fixed;fillColor=#dae8fc;strokeColor=#6c8ebf;" vertex="1" parent="52IHXAo2oJdhzXuVyBYH-67">
          <mxGeometry width="12.799897941126153" height="12.799897941126153" as="geometry" />
        </mxCell>
        <mxCell id="52IHXAo2oJdhzXuVyBYH-69" value="" style="whiteSpace=wrap;html=1;aspect=fixed;fillColor=#dae8fc;strokeColor=#6c8ebf;" vertex="1" parent="52IHXAo2oJdhzXuVyBYH-67">
          <mxGeometry x="1.291283821707742" y="1.7992670976326373" width="12.799897941126153" height="12.799897941126153" as="geometry" />
        </mxCell>
        <mxCell id="52IHXAo2oJdhzXuVyBYH-70" value="" style="whiteSpace=wrap;html=1;aspect=fixed;fillColor=#dae8fc;strokeColor=#6c8ebf;" vertex="1" parent="52IHXAo2oJdhzXuVyBYH-67">
          <mxGeometry x="2.849969432879153" y="3.1549048501358565" width="12.799897941126153" height="12.799897941126153" as="geometry" />
        </mxCell>
        <mxCell id="52IHXAo2oJdhzXuVyBYH-71" value="" style="endArrow=none;dashed=1;html=1;dashPattern=1 4;" edge="1" parent="1">
          <mxGeometry x="30" y="320" width="50" height="50" as="geometry">
            <mxPoint x="174.3700265251989" y="472.3434253027617" as="sourcePoint" />
            <mxPoint x="182.97745358090197" y="472.43826453826887" as="targetPoint" />
          </mxGeometry>
        </mxCell>
        <mxCell id="52IHXAo2oJdhzXuVyBYH-72" value="" style="endArrow=none;html=1;exitX=1;exitY=1;exitDx=0;exitDy=0;entryX=0.005;entryY=1.023;entryDx=0;entryDy=0;entryPerimeter=0;" edge="1" parent="1" source="52IHXAo2oJdhzXuVyBYH-70" target="52IHXAo2oJdhzXuVyBYH-55">
          <mxGeometry x="30" y="320" width="50" height="50" as="geometry">
            <mxPoint x="225.6233421750663" y="488.3396430249443" as="sourcePoint" />
            <mxPoint x="264.7480106100796" y="448.82329489702306" as="targetPoint" />
          </mxGeometry>
        </mxCell>
        <mxCell id="52IHXAo2oJdhzXuVyBYH-73" value="" style="whiteSpace=wrap;html=1;aspect=fixed;fillColor=none;strokeColor=#A680B8;strokeWidth=2;" vertex="1" parent="1">
          <mxGeometry x="239.7082228116711" y="409.3069467691019" width="39.12466843501326" height="39.12466843501326" as="geometry" />
        </mxCell>
        <mxCell id="52IHXAo2oJdhzXuVyBYH-74" value="" style="shape=table;html=1;whiteSpace=wrap;startSize=0;container=1;collapsible=0;childLayout=tableLayout;" vertex="1" parent="1">
          <mxGeometry x="447.8514588859416" y="367.2861570046739" width="15.649867374005307" height="205.48501026519025" as="geometry" />
        </mxCell>
        <mxCell id="52IHXAo2oJdhzXuVyBYH-75" value="" style="shape=partialRectangle;html=1;whiteSpace=wrap;collapsible=0;dropTarget=0;pointerEvents=0;fillColor=none;top=0;left=0;bottom=0;right=0;points=[[0,0.5],[1,0.5]];portConstraint=eastwest;" vertex="1" parent="52IHXAo2oJdhzXuVyBYH-74">
          <mxGeometry width="15.649867374005307" height="15" as="geometry" />
        </mxCell>
        <mxCell id="52IHXAo2oJdhzXuVyBYH-76" value="" style="shape=partialRectangle;html=1;whiteSpace=wrap;connectable=0;overflow=hidden;fillColor=none;top=0;left=0;bottom=0;right=0;" vertex="1" parent="52IHXAo2oJdhzXuVyBYH-75">
          <mxGeometry width="16" height="15" as="geometry" />
        </mxCell>
        <mxCell id="52IHXAo2oJdhzXuVyBYH-77" value="" style="shape=partialRectangle;html=1;whiteSpace=wrap;collapsible=0;dropTarget=0;pointerEvents=0;fillColor=none;top=0;left=0;bottom=0;right=0;points=[[0,0.5],[1,0.5]];portConstraint=eastwest;" vertex="1" parent="52IHXAo2oJdhzXuVyBYH-74">
          <mxGeometry y="15" width="15.649867374005307" height="14" as="geometry" />
        </mxCell>
        <mxCell id="52IHXAo2oJdhzXuVyBYH-78" value="" style="shape=partialRectangle;html=1;whiteSpace=wrap;connectable=0;overflow=hidden;fillColor=none;top=0;left=0;bottom=0;right=0;" vertex="1" parent="52IHXAo2oJdhzXuVyBYH-77">
          <mxGeometry width="16" height="14" as="geometry" />
        </mxCell>
        <mxCell id="52IHXAo2oJdhzXuVyBYH-79" value="" style="shape=partialRectangle;html=1;whiteSpace=wrap;collapsible=0;dropTarget=0;pointerEvents=0;fillColor=none;top=0;left=0;bottom=0;right=0;points=[[0,0.5],[1,0.5]];portConstraint=eastwest;" vertex="1" parent="52IHXAo2oJdhzXuVyBYH-74">
          <mxGeometry y="29" width="15.649867374005307" height="15" as="geometry" />
        </mxCell>
        <mxCell id="52IHXAo2oJdhzXuVyBYH-80" value="" style="shape=partialRectangle;html=1;whiteSpace=wrap;connectable=0;overflow=hidden;fillColor=none;top=0;left=0;bottom=0;right=0;" vertex="1" parent="52IHXAo2oJdhzXuVyBYH-79">
          <mxGeometry width="16" height="15" as="geometry" />
        </mxCell>
        <mxCell id="52IHXAo2oJdhzXuVyBYH-81" value="" style="shape=partialRectangle;html=1;whiteSpace=wrap;collapsible=0;dropTarget=0;pointerEvents=0;fillColor=none;top=0;left=0;bottom=0;right=0;points=[[0,0.5],[1,0.5]];portConstraint=eastwest;" vertex="1" parent="52IHXAo2oJdhzXuVyBYH-74">
          <mxGeometry y="44" width="15.649867374005307" height="14" as="geometry" />
        </mxCell>
        <mxCell id="52IHXAo2oJdhzXuVyBYH-82" value="" style="shape=partialRectangle;html=1;whiteSpace=wrap;connectable=0;overflow=hidden;fillColor=none;top=0;left=0;bottom=0;right=0;" vertex="1" parent="52IHXAo2oJdhzXuVyBYH-81">
          <mxGeometry width="16" height="14" as="geometry" />
        </mxCell>
        <mxCell id="52IHXAo2oJdhzXuVyBYH-83" value="" style="shape=partialRectangle;html=1;whiteSpace=wrap;collapsible=0;dropTarget=0;pointerEvents=0;fillColor=none;top=0;left=0;bottom=0;right=0;points=[[0,0.5],[1,0.5]];portConstraint=eastwest;" vertex="1" parent="52IHXAo2oJdhzXuVyBYH-74">
          <mxGeometry y="58" width="15.649867374005307" height="15" as="geometry" />
        </mxCell>
        <mxCell id="52IHXAo2oJdhzXuVyBYH-84" value="" style="shape=partialRectangle;html=1;whiteSpace=wrap;connectable=0;overflow=hidden;fillColor=none;top=0;left=0;bottom=0;right=0;" vertex="1" parent="52IHXAo2oJdhzXuVyBYH-83">
          <mxGeometry width="16" height="15" as="geometry" />
        </mxCell>
        <mxCell id="52IHXAo2oJdhzXuVyBYH-85" value="" style="shape=partialRectangle;html=1;whiteSpace=wrap;collapsible=0;dropTarget=0;pointerEvents=0;fillColor=none;top=0;left=0;bottom=0;right=0;points=[[0,0.5],[1,0.5]];portConstraint=eastwest;" vertex="1" parent="52IHXAo2oJdhzXuVyBYH-74">
          <mxGeometry y="73" width="15.649867374005307" height="14" as="geometry" />
        </mxCell>
        <mxCell id="52IHXAo2oJdhzXuVyBYH-86" value="" style="shape=partialRectangle;html=1;whiteSpace=wrap;connectable=0;overflow=hidden;fillColor=none;top=0;left=0;bottom=0;right=0;" vertex="1" parent="52IHXAo2oJdhzXuVyBYH-85">
          <mxGeometry width="16" height="14" as="geometry" />
        </mxCell>
        <mxCell id="52IHXAo2oJdhzXuVyBYH-87" value="" style="shape=partialRectangle;html=1;whiteSpace=wrap;collapsible=0;dropTarget=0;pointerEvents=0;fillColor=none;top=0;left=0;bottom=0;right=0;points=[[0,0.5],[1,0.5]];portConstraint=eastwest;" vertex="1" parent="52IHXAo2oJdhzXuVyBYH-74">
          <mxGeometry y="87" width="15.649867374005307" height="15" as="geometry" />
        </mxCell>
        <mxCell id="52IHXAo2oJdhzXuVyBYH-88" value="" style="shape=partialRectangle;html=1;whiteSpace=wrap;connectable=0;overflow=hidden;fillColor=none;top=0;left=0;bottom=0;right=0;" vertex="1" parent="52IHXAo2oJdhzXuVyBYH-87">
          <mxGeometry width="16" height="15" as="geometry" />
        </mxCell>
        <mxCell id="52IHXAo2oJdhzXuVyBYH-89" value="" style="shape=partialRectangle;html=1;whiteSpace=wrap;collapsible=0;dropTarget=0;pointerEvents=0;fillColor=none;top=0;left=0;bottom=0;right=0;points=[[0,0.5],[1,0.5]];portConstraint=eastwest;" vertex="1" parent="52IHXAo2oJdhzXuVyBYH-74">
          <mxGeometry y="102" width="15.649867374005307" height="15" as="geometry" />
        </mxCell>
        <mxCell id="52IHXAo2oJdhzXuVyBYH-90" value="" style="shape=partialRectangle;html=1;whiteSpace=wrap;connectable=0;overflow=hidden;fillColor=none;top=0;left=0;bottom=0;right=0;" vertex="1" parent="52IHXAo2oJdhzXuVyBYH-89">
          <mxGeometry width="16" height="15" as="geometry" />
        </mxCell>
        <mxCell id="52IHXAo2oJdhzXuVyBYH-91" value="" style="shape=partialRectangle;html=1;whiteSpace=wrap;collapsible=0;dropTarget=0;pointerEvents=0;fillColor=none;top=0;left=0;bottom=0;right=0;points=[[0,0.5],[1,0.5]];portConstraint=eastwest;" vertex="1" parent="52IHXAo2oJdhzXuVyBYH-74">
          <mxGeometry y="117" width="15.649867374005307" height="15" as="geometry" />
        </mxCell>
        <mxCell id="52IHXAo2oJdhzXuVyBYH-92" value="" style="shape=partialRectangle;html=1;whiteSpace=wrap;connectable=0;overflow=hidden;fillColor=none;top=0;left=0;bottom=0;right=0;" vertex="1" parent="52IHXAo2oJdhzXuVyBYH-91">
          <mxGeometry width="16" height="15" as="geometry" />
        </mxCell>
        <mxCell id="52IHXAo2oJdhzXuVyBYH-93" value="" style="shape=partialRectangle;html=1;whiteSpace=wrap;collapsible=0;dropTarget=0;pointerEvents=0;fillColor=none;top=0;left=0;bottom=0;right=0;points=[[0,0.5],[1,0.5]];portConstraint=eastwest;" vertex="1" parent="52IHXAo2oJdhzXuVyBYH-74">
          <mxGeometry y="132" width="15.649867374005307" height="15" as="geometry" />
        </mxCell>
        <mxCell id="52IHXAo2oJdhzXuVyBYH-94" value="" style="shape=partialRectangle;html=1;whiteSpace=wrap;connectable=0;overflow=hidden;fillColor=none;top=0;left=0;bottom=0;right=0;" vertex="1" parent="52IHXAo2oJdhzXuVyBYH-93">
          <mxGeometry width="16" height="15" as="geometry" />
        </mxCell>
        <mxCell id="52IHXAo2oJdhzXuVyBYH-95" value="" style="shape=partialRectangle;html=1;whiteSpace=wrap;collapsible=0;dropTarget=0;pointerEvents=0;fillColor=none;top=0;left=0;bottom=0;right=0;points=[[0,0.5],[1,0.5]];portConstraint=eastwest;" vertex="1" parent="52IHXAo2oJdhzXuVyBYH-74">
          <mxGeometry y="147" width="15.649867374005307" height="14" as="geometry" />
        </mxCell>
        <mxCell id="52IHXAo2oJdhzXuVyBYH-96" value="" style="shape=partialRectangle;html=1;whiteSpace=wrap;connectable=0;overflow=hidden;fillColor=none;top=0;left=0;bottom=0;right=0;" vertex="1" parent="52IHXAo2oJdhzXuVyBYH-95">
          <mxGeometry width="16" height="14" as="geometry" />
        </mxCell>
        <mxCell id="52IHXAo2oJdhzXuVyBYH-97" value="" style="shape=partialRectangle;html=1;whiteSpace=wrap;collapsible=0;dropTarget=0;pointerEvents=0;fillColor=none;top=0;left=0;bottom=0;right=0;points=[[0,0.5],[1,0.5]];portConstraint=eastwest;" vertex="1" parent="52IHXAo2oJdhzXuVyBYH-74">
          <mxGeometry y="161" width="15.649867374005307" height="15" as="geometry" />
        </mxCell>
        <mxCell id="52IHXAo2oJdhzXuVyBYH-98" value="" style="shape=partialRectangle;html=1;whiteSpace=wrap;connectable=0;overflow=hidden;fillColor=none;top=0;left=0;bottom=0;right=0;" vertex="1" parent="52IHXAo2oJdhzXuVyBYH-97">
          <mxGeometry width="16" height="15" as="geometry" />
        </mxCell>
        <mxCell id="52IHXAo2oJdhzXuVyBYH-99" value="" style="shape=partialRectangle;html=1;whiteSpace=wrap;collapsible=0;dropTarget=0;pointerEvents=0;fillColor=none;top=0;left=0;bottom=0;right=0;points=[[0,0.5],[1,0.5]];portConstraint=eastwest;" vertex="1" parent="52IHXAo2oJdhzXuVyBYH-74">
          <mxGeometry y="176" width="15.649867374005307" height="14" as="geometry" />
        </mxCell>
        <mxCell id="52IHXAo2oJdhzXuVyBYH-100" value="" style="shape=partialRectangle;html=1;whiteSpace=wrap;connectable=0;overflow=hidden;fillColor=none;top=0;left=0;bottom=0;right=0;" vertex="1" parent="52IHXAo2oJdhzXuVyBYH-99">
          <mxGeometry width="16" height="14" as="geometry" />
        </mxCell>
        <mxCell id="52IHXAo2oJdhzXuVyBYH-101" value="" style="shape=partialRectangle;html=1;whiteSpace=wrap;collapsible=0;dropTarget=0;pointerEvents=0;fillColor=none;top=0;left=0;bottom=0;right=0;points=[[0,0.5],[1,0.5]];portConstraint=eastwest;" vertex="1" parent="52IHXAo2oJdhzXuVyBYH-74">
          <mxGeometry y="190" width="15.649867374005307" height="15" as="geometry" />
        </mxCell>
        <mxCell id="52IHXAo2oJdhzXuVyBYH-102" value="" style="shape=partialRectangle;html=1;whiteSpace=wrap;connectable=0;overflow=hidden;fillColor=none;top=0;left=0;bottom=0;right=0;" vertex="1" parent="52IHXAo2oJdhzXuVyBYH-101">
          <mxGeometry width="16" height="15" as="geometry" />
        </mxCell>
        <mxCell id="52IHXAo2oJdhzXuVyBYH-103" value="" style="rounded=0;whiteSpace=wrap;html=1;strokeColor=#82b366;fillColor=#d5e8d4;" vertex="1" parent="1">
          <mxGeometry x="495.58" y="390.55" width="7.82" height="39.03" as="geometry" />
        </mxCell>
        <mxCell id="52IHXAo2oJdhzXuVyBYH-104" value="" style="rounded=0;whiteSpace=wrap;html=1;strokeColor=#6c8ebf;fillColor=#dae8fc;" vertex="1" parent="1">
          <mxGeometry x="495.58" y="440" width="7.82" height="40" as="geometry" />
        </mxCell>
        <mxCell id="52IHXAo2oJdhzXuVyBYH-105" value="" style="rounded=0;whiteSpace=wrap;html=1;strokeColor=#d79b00;fillColor=#ffe6cc;" vertex="1" parent="1">
          <mxGeometry x="495.58" y="486.95000000000005" width="7.82" height="36.01" as="geometry" />
        </mxCell>
        <mxCell id="52IHXAo2oJdhzXuVyBYH-106" value="" style="endArrow=classic;html=1;" edge="1" parent="1">
          <mxGeometry x="30" y="320" width="50" height="50" as="geometry">
            <mxPoint x="330.47745358090197" y="465.1119335953522" as="sourcePoint" />
            <mxPoint x="346.1273209549072" y="464.8827387762103" as="targetPoint" />
          </mxGeometry>
        </mxCell>
        <mxCell id="52IHXAo2oJdhzXuVyBYH-107" value="" style="endArrow=classic;html=1;" edge="1" parent="1">
          <mxGeometry x="30" y="320" width="50" height="50" as="geometry">
            <mxPoint x="429.0716180371353" y="460.9073941545414" as="sourcePoint" />
            <mxPoint x="444.7214854111405" y="460.67819933539954" as="targetPoint" />
          </mxGeometry>
        </mxCell>
        <mxCell id="52IHXAo2oJdhzXuVyBYH-108" value="" style="endArrow=classic;html=1;" edge="1" parent="1">
          <mxGeometry x="30" y="320" width="50" height="50" as="geometry">
            <mxPoint x="471.3262599469497" y="460.9073941545414" as="sourcePoint" />
            <mxPoint x="486.9761273209549" y="460.67819933539954" as="targetPoint" />
          </mxGeometry>
        </mxCell>
        <mxCell id="52IHXAo2oJdhzXuVyBYH-109" value="&lt;font style=&quot;font-size: 10.5px&quot;&gt;全连接&lt;br&gt;&lt;/font&gt;" style="text;html=1;align=center;verticalAlign=middle;resizable=0;points=[];autosize=1;fontSize=10.5;" vertex="1" parent="1">
          <mxGeometry x="429.4840583554377" y="575.4437829703314" width="50" height="20" as="geometry" />
        </mxCell>
        <mxCell id="52IHXAo2oJdhzXuVyBYH-110" value="&lt;font style=&quot;font-size: 10.5px&quot;&gt;预测&lt;br&gt;&lt;/font&gt;" style="text;html=1;align=center;verticalAlign=middle;resizable=0;points=[];autosize=1;fontSize=10.5;" vertex="1" parent="1">
          <mxGeometry x="479.48615384615385" y="536.1737829703314" width="40" height="20" as="geometry" />
        </mxCell>
        <mxCell id="52IHXAo2oJdhzXuVyBYH-111" value="&lt;font style=&quot;font-size: 10.5px&quot;&gt;输出&lt;br&gt;&lt;/font&gt;" style="text;html=1;align=center;verticalAlign=middle;resizable=0;points=[];autosize=1;fontSize=10.5;" vertex="1" parent="1">
          <mxGeometry x="520.0009283819629" y="439.7219653124996" width="40" height="20" as="geometry" />
        </mxCell>
        <mxCell id="52IHXAo2oJdhzXuVyBYH-112" value="" style="rounded=1;whiteSpace=wrap;html=1;fillColor=#ffcc99;direction=east;flipH=0;flipV=0;container=0;strokeColor=#36393d;dashed=1;" vertex="1" parent="1">
          <mxGeometry x="477.4467108753315" y="634.8028065680171" width="70.42440318302387" height="61.78776193281759" as="geometry" />
        </mxCell>
        <mxCell id="52IHXAo2oJdhzXuVyBYH-113" value="" style="whiteSpace=wrap;html=1;aspect=fixed;fillColor=#dae8fc;strokeColor=#6c8ebf;direction=east;flipH=1;flipV=1;container=0;" vertex="1" parent="1">
          <mxGeometry x="516.5713793103448" y="654.3317858128356" width="18.559852014632916" height="18.559852014632916" as="geometry" />
        </mxCell>
        <mxCell id="52IHXAo2oJdhzXuVyBYH-114" value="" style="whiteSpace=wrap;html=1;aspect=fixed;fillColor=#dae8fc;strokeColor=#6c8ebf;direction=east;flipH=1;flipV=1;container=0;" vertex="1" parent="1">
          <mxGeometry x="518.4437408518211" y="656.6032535830785" width="18.559852014632916" height="18.559852014632916" as="geometry" />
        </mxCell>
        <mxCell id="52IHXAo2oJdhzXuVyBYH-115" value="" style="whiteSpace=wrap;html=1;aspect=fixed;fillColor=#dae8fc;strokeColor=#6c8ebf;direction=east;flipH=1;flipV=1;container=0;" vertex="1" parent="1">
          <mxGeometry x="520.7038349880196" y="658.3146656724713" width="18.559852014632916" height="18.559852014632916" as="geometry" />
        </mxCell>
        <mxCell id="52IHXAo2oJdhzXuVyBYH-116" value="" style="endArrow=none;dashed=1;html=1;dashPattern=1 4;flipH=0;flipV=0;" edge="1" parent="1">
          <mxGeometry x="142.67411140583553" y="531.6071921002249" width="39.12466843501326" height="39.5163481279212" as="geometry">
            <mxPoint x="240.09453580901845" y="642.0632883873902" as="sourcePoint" />
            <mxPoint x="248.7019628647215" y="642.1581276228972" as="targetPoint" />
          </mxGeometry>
        </mxCell>
        <mxCell id="52IHXAo2oJdhzXuVyBYH-117" value="" style="rounded=0;whiteSpace=wrap;html=1;direction=east;flipH=1;flipV=1;container=0;" vertex="1" parent="1">
          <mxGeometry x="520.7029442970822" y="658.3150337041301" width="7.824933687002654" height="18.93623402289984" as="geometry" />
        </mxCell>
        <mxCell id="52IHXAo2oJdhzXuVyBYH-118" value="" style="html=1;whiteSpace=wrap;shape=isoCube2;backgroundOutline=1;isoAngle=15;direction=south;rotation=90;flipH=0;flipV=0;container=0;" vertex="1" parent="1">
          <mxGeometry x="422.672175066313" y="658.3150337041301" width="54.77453580901857" height="7.90326962558424" as="geometry" />
        </mxCell>
        <mxCell id="52IHXAo2oJdhzXuVyBYH-119" value="" style="html=1;whiteSpace=wrap;shape=isoCube2;backgroundOutline=1;isoAngle=15;direction=south;rotation=90;flipH=0;flipV=0;container=0;" vertex="1" parent="1">
          <mxGeometry x="363.20267904509285" y="658.3150337041301" width="54.77453580901857" height="7.90326962558424" as="geometry" />
        </mxCell>
        <mxCell id="52IHXAo2oJdhzXuVyBYH-120" value="" style="html=1;whiteSpace=wrap;shape=isoCube2;backgroundOutline=1;isoAngle=15;direction=south;rotation=90;flipH=0;flipV=0;container=0;" vertex="1" parent="1">
          <mxGeometry x="376.5050663129974" y="658.3150337041301" width="54.77453580901857" height="7.90326962558424" as="geometry" />
        </mxCell>
        <mxCell id="52IHXAo2oJdhzXuVyBYH-121" value="" style="html=1;whiteSpace=wrap;shape=isoCube2;backgroundOutline=1;isoAngle=15;direction=south;rotation=90;flipH=0;flipV=0;container=0;" vertex="1" parent="1">
          <mxGeometry x="407.02230769230766" y="658.3150337041301" width="54.77453580901857" height="7.90326962558424" as="geometry" />
        </mxCell>
        <mxCell id="52IHXAo2oJdhzXuVyBYH-122" value="" style="endArrow=none;dashed=1;html=1;dashPattern=1 3;strokeWidth=2;flipH=0;flipV=0;" edge="1" parent="1">
          <mxGeometry x="216.87641909814326" y="569.2530882934215" width="39.12466843501326" height="39.5163481279212" as="geometry">
            <mxPoint x="412.49976127320963" y="666.2183033297146" as="sourcePoint" />
            <mxPoint x="428.14962864721485" y="666.2183033297146" as="targetPoint" />
          </mxGeometry>
        </mxCell>
        <mxCell id="52IHXAo2oJdhzXuVyBYH-123" value="" style="endArrow=classic;html=1;flipH=0;flipV=0;" edge="1" parent="1">
          <mxGeometry x="-30.251989389920432" y="560.0770815962769" width="39.12466843501326" height="39.5163481279212" as="geometry">
            <mxPoint x="209.973474801061" y="655.5090623252067" as="sourcePoint" />
            <mxPoint x="194.32360742705578" y="655.7382571443486" as="targetPoint" />
          </mxGeometry>
        </mxCell>
        <mxCell id="52IHXAo2oJdhzXuVyBYH-124" value="" style="endArrow=classic;html=1;flipH=0;flipV=0;" edge="1" parent="1">
          <mxGeometry x="40.032917771883284" y="560.7436905996" width="39.12466843501326" height="39.5163481279212" as="geometry">
            <mxPoint x="376.5050663129974" y="655.314214939341" as="sourcePoint" />
            <mxPoint x="310" y="656" as="targetPoint" />
          </mxGeometry>
        </mxCell>
        <mxCell id="52IHXAo2oJdhzXuVyBYH-125" value="" style="shape=table;html=1;whiteSpace=wrap;startSize=0;container=1;collapsible=0;childLayout=tableLayout;fontSize=10.5;direction=east;flipH=0;flipV=0;" vertex="1" parent="1">
          <mxGeometry x="30" y="646.3728826380313" width="156.49867374005305" height="15.80653925116848" as="geometry" />
        </mxCell>
        <mxCell id="52IHXAo2oJdhzXuVyBYH-126" value="" style="shape=partialRectangle;html=1;whiteSpace=wrap;collapsible=0;dropTarget=0;pointerEvents=0;fillColor=none;top=0;left=0;bottom=0;right=0;points=[[0,0.5],[1,0.5]];portConstraint=eastwest;fontSize=10.5;direction=east;flipH=0;flipV=0;" vertex="1" parent="52IHXAo2oJdhzXuVyBYH-125">
          <mxGeometry width="156.49867374005305" height="16" as="geometry" />
        </mxCell>
        <mxCell id="52IHXAo2oJdhzXuVyBYH-127" value="-" style="shape=partialRectangle;html=1;whiteSpace=wrap;connectable=0;overflow=hidden;fillColor=none;top=0;left=0;bottom=0;right=0;fontSize=10.5;direction=east;flipH=0;flipV=0;container=0;" vertex="1" parent="52IHXAo2oJdhzXuVyBYH-126">
          <mxGeometry width="16" height="16" as="geometry" />
        </mxCell>
        <mxCell id="52IHXAo2oJdhzXuVyBYH-128" value="s" style="shape=partialRectangle;html=1;whiteSpace=wrap;connectable=0;overflow=hidden;fillColor=none;top=0;left=0;bottom=0;right=0;fontSize=10.5;direction=east;flipH=0;flipV=0;container=0;" vertex="1" parent="52IHXAo2oJdhzXuVyBYH-126">
          <mxGeometry x="16" width="15" height="16" as="geometry" />
        </mxCell>
        <mxCell id="52IHXAo2oJdhzXuVyBYH-129" value="-" style="shape=partialRectangle;html=1;whiteSpace=wrap;connectable=0;overflow=hidden;fillColor=none;top=0;left=0;bottom=0;right=0;fontSize=10.5;direction=east;flipH=0;flipV=0;container=0;" vertex="1" parent="52IHXAo2oJdhzXuVyBYH-126">
          <mxGeometry x="31" width="16" height="16" as="geometry" />
        </mxCell>
        <mxCell id="52IHXAo2oJdhzXuVyBYH-130" value="t" style="shape=partialRectangle;html=1;whiteSpace=wrap;connectable=0;overflow=hidden;fillColor=none;top=0;left=0;bottom=0;right=0;fontSize=10.5;direction=east;flipH=0;flipV=0;container=0;" vertex="1" parent="52IHXAo2oJdhzXuVyBYH-126">
          <mxGeometry x="47" width="16" height="16" as="geometry" />
        </mxCell>
        <mxCell id="52IHXAo2oJdhzXuVyBYH-131" value="-" style="shape=partialRectangle;html=1;whiteSpace=wrap;connectable=0;overflow=hidden;fillColor=none;top=0;left=0;bottom=0;right=0;fontSize=10.5;direction=east;flipH=0;flipV=0;container=0;" vertex="1" parent="52IHXAo2oJdhzXuVyBYH-126">
          <mxGeometry x="63" width="16" height="16" as="geometry" />
        </mxCell>
        <mxCell id="52IHXAo2oJdhzXuVyBYH-132" value="a" style="shape=partialRectangle;html=1;whiteSpace=wrap;connectable=0;overflow=hidden;fillColor=none;top=0;left=0;bottom=0;right=0;fontSize=10.5;direction=east;flipH=0;flipV=0;container=0;" vertex="1" parent="52IHXAo2oJdhzXuVyBYH-126">
          <mxGeometry x="79" width="15" height="16" as="geometry" />
        </mxCell>
        <mxCell id="52IHXAo2oJdhzXuVyBYH-133" value="a" style="shape=partialRectangle;html=1;whiteSpace=wrap;connectable=0;overflow=hidden;fillColor=none;top=0;left=0;bottom=0;right=0;fontSize=10.5;direction=east;flipH=0;flipV=0;container=0;" vertex="1" parent="52IHXAo2oJdhzXuVyBYH-126">
          <mxGeometry x="94" width="16" height="16" as="geometry" />
        </mxCell>
        <mxCell id="52IHXAo2oJdhzXuVyBYH-134" value="t" style="shape=partialRectangle;html=1;whiteSpace=wrap;connectable=0;overflow=hidden;fillColor=none;top=0;left=0;bottom=0;right=0;fontSize=10.5;direction=east;flipH=0;flipV=0;container=0;" vertex="1" parent="52IHXAo2oJdhzXuVyBYH-126">
          <mxGeometry x="110" width="16" height="16" as="geometry" />
        </mxCell>
        <mxCell id="52IHXAo2oJdhzXuVyBYH-135" value="t" style="shape=partialRectangle;html=1;whiteSpace=wrap;connectable=0;overflow=hidden;fillColor=none;top=0;left=0;bottom=0;right=0;fontSize=10.5;direction=east;flipH=0;flipV=0;container=0;" vertex="1" parent="52IHXAo2oJdhzXuVyBYH-126">
          <mxGeometry x="126" width="15" height="16" as="geometry" />
        </mxCell>
        <mxCell id="52IHXAo2oJdhzXuVyBYH-136" value="e" style="shape=partialRectangle;html=1;whiteSpace=wrap;connectable=0;overflow=hidden;fillColor=none;top=0;left=0;bottom=0;right=0;fontSize=10.5;direction=east;flipH=0;flipV=0;container=0;" vertex="1" parent="52IHXAo2oJdhzXuVyBYH-126">
          <mxGeometry x="141" width="15" height="16" as="geometry" />
        </mxCell>
        <mxCell id="52IHXAo2oJdhzXuVyBYH-137" value="" style="endArrow=classic;html=1;flipH=0;flipV=1;" edge="1" parent="1">
          <mxGeometry x="-317.99045092838196" y="461.1834687713414" width="39.12466843501326" height="39.5163481279212" as="geometry">
            <mxPoint x="104.28992042440314" y="619.2488612830261" as="sourcePoint" />
            <mxPoint x="104.28992042440314" y="637.9875135652865" as="targetPoint" />
          </mxGeometry>
        </mxCell>
        <mxCell id="52IHXAo2oJdhzXuVyBYH-138" value="state" style="text;html=1;align=center;verticalAlign=middle;resizable=0;points=[];autosize=1;fontSize=10.5;direction=east;flipH=0;flipV=1;container=0;" vertex="1" parent="1">
          <mxGeometry x="88.90610079575598" y="595.4442131707665" width="40" height="20" as="geometry" />
        </mxCell>
        <mxCell id="52IHXAo2oJdhzXuVyBYH-139" value="" style="endArrow=classic;html=1;flipH=0;flipV=1;" edge="1" parent="1">
          <mxGeometry x="-317.99045092838196" y="461.1834687713414" width="39.12466843501326" height="39.5163481279212" as="geometry">
            <mxPoint x="104.33687002652528" y="540.4690696552025" as="sourcePoint" />
            <mxPoint x="104.28992042440314" y="591.9272581873813" as="targetPoint" />
          </mxGeometry>
        </mxCell>
        <mxCell id="52IHXAo2oJdhzXuVyBYH-140" value="&lt;font style=&quot;font-size: 10.5px&quot;&gt;转录&lt;/font&gt;" style="text;html=1;align=center;verticalAlign=middle;resizable=0;points=[];autosize=1;fontSize=10.5;direction=east;flipH=0;flipV=0;container=0;" vertex="1" parent="1">
          <mxGeometry x="181.72749147404323" y="623.2268373412144" width="40" height="20" as="geometry" />
        </mxCell>
        <mxCell id="52IHXAo2oJdhzXuVyBYH-141" value="&lt;font style=&quot;font-size: 10.5px&quot;&gt;输出&lt;/font&gt;" style="text;html=1;align=center;verticalAlign=middle;resizable=0;points=[];autosize=1;fontSize=10.5;direction=east;flipH=0;flipV=0;container=0;" vertex="1" parent="1">
          <mxGeometry x="58.17311481621829" y="562.0375864177735" width="40" height="20" as="geometry" />
        </mxCell>
        <mxCell id="52IHXAo2oJdhzXuVyBYH-142" value="" style="rounded=1;whiteSpace=wrap;html=1;fillColor=none;dashed=1;strokeColor=#FF6666;direction=east;flipH=0;flipV=0;container=0;" vertex="1" parent="1">
          <mxGeometry x="225.61840848806366" y="542.727092463422" width="70.42440318302387" height="186.78661526258531" as="geometry" />
        </mxCell>
        <mxCell id="52IHXAo2oJdhzXuVyBYH-143" value="" style="rounded=0;whiteSpace=wrap;html=1;strokeColor=#9673a6;strokeWidth=2;fillColor=#e1d5e7;direction=east;flipH=0;flipV=0;container=0;" vertex="1" parent="1">
          <mxGeometry x="230.1088025767336" y="552.3922972611599" width="60.36377415687761" height="12.881835535350712" as="geometry" />
        </mxCell>
        <mxCell id="52IHXAo2oJdhzXuVyBYH-144" value="" style="rounded=0;whiteSpace=wrap;html=1;strokeColor=#9673a6;strokeWidth=2;fillColor=#e1d5e7;direction=east;flipH=0;flipV=0;container=0;" vertex="1" parent="1">
          <mxGeometry x="230.1088025767336" y="578.1559683318612" width="60.36377415687761" height="12.881835535350712" as="geometry" />
        </mxCell>
        <mxCell id="52IHXAo2oJdhzXuVyBYH-145" value="" style="rounded=0;whiteSpace=wrap;html=1;strokeColor=#d6b656;strokeWidth=2;fillColor=#fff2cc;direction=east;flipH=0;flipV=0;container=0;" vertex="1" parent="1">
          <mxGeometry x="230.1088025767336" y="603.9196394025628" width="60.36377415687761" height="12.881835535350712" as="geometry" />
        </mxCell>
        <mxCell id="52IHXAo2oJdhzXuVyBYH-146" value="" style="rounded=0;whiteSpace=wrap;html=1;strokeColor=#9673a6;strokeWidth=2;fillColor=#e1d5e7;direction=east;flipH=0;flipV=0;container=0;" vertex="1" parent="1">
          <mxGeometry x="230.1088025767336" y="629.683310473264" width="60.36377415687761" height="12.881835535350712" as="geometry" />
        </mxCell>
        <mxCell id="52IHXAo2oJdhzXuVyBYH-147" value="" style="rounded=0;whiteSpace=wrap;html=1;strokeColor=#9673a6;strokeWidth=2;fillColor=#e1d5e7;direction=east;flipH=0;flipV=0;container=0;" vertex="1" parent="1">
          <mxGeometry x="230.1088025767336" y="655.4469815439655" width="60.36377415687761" height="12.881835535350712" as="geometry" />
        </mxCell>
        <mxCell id="52IHXAo2oJdhzXuVyBYH-148" value="" style="rounded=0;whiteSpace=wrap;html=1;strokeColor=#9673a6;strokeWidth=2;fillColor=#e1d5e7;direction=east;flipH=0;flipV=0;container=0;" vertex="1" parent="1">
          <mxGeometry x="230.1088025767336" y="681.210652614667" width="60.36377415687761" height="12.881835535350712" as="geometry" />
        </mxCell>
        <mxCell id="52IHXAo2oJdhzXuVyBYH-149" value="" style="rounded=0;whiteSpace=wrap;html=1;strokeColor=#9673a6;strokeWidth=2;fillColor=#e1d5e7;direction=east;flipH=0;flipV=0;container=0;" vertex="1" parent="1">
          <mxGeometry x="230.1088025767336" y="706.9743236853684" width="60.36377415687761" height="12.881835535350712" as="geometry" />
        </mxCell>
        <mxCell id="52IHXAo2oJdhzXuVyBYH-150" value="&lt;font style=&quot;font-size: 10.5px&quot;&gt;BLSTM&lt;/font&gt;" style="text;html=1;align=center;verticalAlign=middle;resizable=0;points=[];autosize=1;fontSize=10.5;direction=east;flipH=0;flipV=0;container=0;" vertex="1" parent="1">
          <mxGeometry x="230.10924213717317" y="729.5134607488316" width="60" height="20" as="geometry" />
        </mxCell>
        <mxCell id="52IHXAo2oJdhzXuVyBYH-151" value="state" style="text;html=1;align=center;verticalAlign=middle;resizable=0;points=[];autosize=1;fontSize=10.5;direction=east;flipH=0;flipV=1;container=0;" vertex="1" parent="1">
          <mxGeometry x="88.90610079575598" y="595.4442131707665" width="40" height="20" as="geometry" />
        </mxCell>
        <mxCell id="52IHXAo2oJdhzXuVyBYH-152" value="" style="endArrow=none;html=1;exitX=0;exitY=1;exitDx=0;exitDy=0;entryX=0;entryY=0;entryDx=0;entryDy=2.40078759080116;flipH=0;flipV=0;entryPerimeter=0;" edge="1" parent="1" source="52IHXAo2oJdhzXuVyBYH-155" target="52IHXAo2oJdhzXuVyBYH-118">
          <mxGeometry x="133.14962864721485" y="566.3288785319552" width="39.12466843501326" height="39.5163481279212" as="geometry">
            <mxPoint x="281.8233687002653" y="692.7811925413031" as="sourcePoint" />
            <mxPoint x="282.29286472148556" y="708.896749634832" as="targetPoint" />
          </mxGeometry>
        </mxCell>
        <mxCell id="52IHXAo2oJdhzXuVyBYH-153" value="" style="whiteSpace=wrap;html=1;aspect=fixed;fillColor=#dae8fc;strokeColor=#6c8ebf;direction=east;flipH=0;flipV=0;container=0;" vertex="1" parent="1">
          <mxGeometry x="493.09657824933686" y="658.3150337041301" width="12.79989794112615" height="12.79989794112615" as="geometry" />
        </mxCell>
        <mxCell id="52IHXAo2oJdhzXuVyBYH-154" value="" style="whiteSpace=wrap;html=1;aspect=fixed;fillColor=#dae8fc;strokeColor=#6c8ebf;direction=east;flipH=0;flipV=0;container=0;" vertex="1" parent="1">
          <mxGeometry x="494.38786207104465" y="660.1143008017629" width="12.79989794112615" height="12.79989794112615" as="geometry" />
        </mxCell>
        <mxCell id="52IHXAo2oJdhzXuVyBYH-155" value="" style="whiteSpace=wrap;html=1;aspect=fixed;fillColor=#dae8fc;strokeColor=#6c8ebf;direction=east;flipH=0;flipV=0;container=0;" vertex="1" parent="1">
          <mxGeometry x="495.9465476822161" y="661.469938554266" width="12.79989794112615" height="12.79989794112615" as="geometry" />
        </mxCell>
        <mxCell id="52IHXAo2oJdhzXuVyBYH-156" value="" style="rounded=0;whiteSpace=wrap;html=1;direction=east;flipH=0;flipV=0;container=0;" vertex="1" parent="1">
          <mxGeometry x="495.9448541114058" y="661.4684382847382" width="4.976657824933687" height="12.65313467056037" as="geometry" />
        </mxCell>
        <mxCell id="52IHXAo2oJdhzXuVyBYH-157" value="" style="endArrow=classic;html=1;edgeStyle=orthogonalEdgeStyle;entryX=1;entryY=0.5;entryDx=0;entryDy=0;" edge="1" parent="1" target="52IHXAo2oJdhzXuVyBYH-112">
          <mxGeometry x="35.65" y="323.45" width="50" height="50" as="geometry">
            <mxPoint x="518.4484084880636" y="464.12819933539953" as="sourcePoint" />
            <mxPoint x="605.65" y="673.45" as="targetPoint" />
            <Array as="points">
              <mxPoint x="590" y="464" />
              <mxPoint x="590" y="666" />
            </Array>
          </mxGeometry>
        </mxCell>
        <mxCell id="52IHXAo2oJdhzXuVyBYH-160" value="" style="endArrow=none;dashed=1;html=1;dashPattern=1 4;flipH=0;flipV=0;" edge="1" parent="1">
          <mxGeometry x="269.32559681697614" y="357.2639162846297" width="39.12466843501326" height="39.5163481279212" as="geometry">
            <mxPoint x="366.74602122015904" y="467.720012571795" as="sourcePoint" />
            <mxPoint x="375.3534482758621" y="467.8148518073019" as="targetPoint" />
          </mxGeometry>
        </mxCell>
        <mxCell id="52IHXAo2oJdhzXuVyBYH-161" value="" style="rounded=1;whiteSpace=wrap;html=1;fillColor=none;dashed=1;strokeColor=#FF6666;direction=east;flipH=0;flipV=0;container=0;" vertex="1" parent="1">
          <mxGeometry x="351.72997347480106" y="367.2852621698705" width="70.42440318302387" height="186.78661526258531" as="geometry" />
        </mxCell>
        <mxCell id="52IHXAo2oJdhzXuVyBYH-162" value="" style="rounded=0;whiteSpace=wrap;html=1;strokeColor=#9673a6;strokeWidth=2;fillColor=#e1d5e7;direction=east;flipH=0;flipV=0;container=0;" vertex="1" parent="1">
          <mxGeometry x="356.76028798787416" y="378.04902144556473" width="60.36377415687761" height="12.881835535350712" as="geometry" />
        </mxCell>
        <mxCell id="52IHXAo2oJdhzXuVyBYH-163" value="" style="rounded=0;whiteSpace=wrap;html=1;strokeColor=#9673a6;strokeWidth=2;fillColor=#e1d5e7;direction=east;flipH=0;flipV=0;container=0;" vertex="1" parent="1">
          <mxGeometry x="356.76028798787416" y="403.81269251626605" width="60.36377415687761" height="12.881835535350712" as="geometry" />
        </mxCell>
        <mxCell id="52IHXAo2oJdhzXuVyBYH-164" value="" style="rounded=0;whiteSpace=wrap;html=1;strokeColor=#d6b656;strokeWidth=2;fillColor=#fff2cc;direction=east;flipH=0;flipV=0;container=0;" vertex="1" parent="1">
          <mxGeometry x="356.76028798787416" y="429.57636358696755" width="60.36377415687761" height="12.881835535350712" as="geometry" />
        </mxCell>
        <mxCell id="52IHXAo2oJdhzXuVyBYH-165" value="" style="rounded=0;whiteSpace=wrap;html=1;strokeColor=#9673a6;strokeWidth=2;fillColor=#e1d5e7;direction=east;flipH=0;flipV=0;container=0;" vertex="1" parent="1">
          <mxGeometry x="356.76028798787416" y="455.34003465766887" width="60.36377415687761" height="12.881835535350712" as="geometry" />
        </mxCell>
        <mxCell id="52IHXAo2oJdhzXuVyBYH-166" value="" style="rounded=0;whiteSpace=wrap;html=1;strokeColor=#9673a6;strokeWidth=2;fillColor=#e1d5e7;direction=east;flipH=0;flipV=0;container=0;" vertex="1" parent="1">
          <mxGeometry x="356.76028798787416" y="481.1037057283704" width="60.36377415687761" height="12.881835535350712" as="geometry" />
        </mxCell>
        <mxCell id="52IHXAo2oJdhzXuVyBYH-167" value="" style="rounded=0;whiteSpace=wrap;html=1;strokeColor=#9673a6;strokeWidth=2;fillColor=#e1d5e7;direction=east;flipH=0;flipV=0;container=0;" vertex="1" parent="1">
          <mxGeometry x="356.76028798787416" y="506.86737679907185" width="60.36377415687761" height="12.881835535350712" as="geometry" />
        </mxCell>
        <mxCell id="52IHXAo2oJdhzXuVyBYH-168" value="" style="rounded=0;whiteSpace=wrap;html=1;strokeColor=#9673a6;strokeWidth=2;fillColor=#e1d5e7;direction=east;flipH=0;flipV=0;container=0;" vertex="1" parent="1">
          <mxGeometry x="356.76028798787416" y="532.6310478697733" width="60.36377415687761" height="12.881835535350712" as="geometry" />
        </mxCell>
        <mxCell id="52IHXAo2oJdhzXuVyBYH-169" value="&lt;font style=&quot;font-size: 10.5px&quot;&gt;BLSTM&lt;/font&gt;" style="text;html=1;align=center;verticalAlign=middle;resizable=0;points=[];autosize=1;fontSize=10.5;direction=east;flipH=0;flipV=0;container=0;" vertex="1" parent="1">
          <mxGeometry x="363.4707275483138" y="555.1701849332363" width="60" height="20" as="geometry" />
        </mxCell>
        <mxCell id="52IHXAo2oJdhzXuVyBYH-170" value="&lt;span style=&quot;font-size: 12px&quot;&gt;从最初的特征图像上切割文本框&lt;/span&gt;" style="text;html=1;align=center;verticalAlign=middle;resizable=0;points=[];autosize=1;fontSize=10.5;" vertex="1" parent="1">
          <mxGeometry x="425.0029442970823" y="696.5905685008346" width="180" height="20" as="geometry" />
        </mxCell>
        <mxCell id="52IHXAo2oJdhzXuVyBYH-173" value="" style="endArrow=none;html=1;exitX=0;exitY=0;exitDx=0;exitDy=0;entryX=0;entryY=0;entryDx=0;entryDy=52.877128644632734;flipH=0;flipV=0;entryPerimeter=0;" edge="1" parent="1" source="52IHXAo2oJdhzXuVyBYH-155" target="52IHXAo2oJdhzXuVyBYH-118">
          <mxGeometry x="133.14962864721485" y="566.3288785319552" width="39.12466843501326" height="39.5163481279212" as="geometry">
            <mxPoint x="281.8233687002653" y="708.5877317924716" as="sourcePoint" />
            <mxPoint x="289.6483023872679" y="637.4583051622134" as="targetPoint" />
          </mxGeometry>
        </mxCell>
        <mxCell id="52IHXAo2oJdhzXuVyBYH-174" value="" style="shape=flexArrow;endArrow=classic;startArrow=classic;html=1;exitX=0.5;exitY=0;exitDx=0;exitDy=0;entryX=0.5;entryY=1;entryDx=0;entryDy=0;startWidth=6.8965517241379315;startSize=2.903448275862069;endWidth=6.8965517241379315;endSize=2.903448275862069;" edge="1" parent="1" source="52IHXAo2oJdhzXuVyBYH-112" target="52IHXAo2oJdhzXuVyBYH-1">
          <mxGeometry width="50" height="50" relative="1" as="geometry">
            <mxPoint x="320" y="580" as="sourcePoint" />
            <mxPoint x="370" y="530" as="targetPoint" />
            <Array as="points">
              <mxPoint x="513" y="610" />
              <mxPoint x="330" y="610" />
              <mxPoint x="330" y="580" />
              <mxPoint x="330" y="530" />
              <mxPoint x="177" y="530" />
              <mxPoint x="177" y="510" />
            </Array>
          </mxGeometry>
        </mxCell>
      </root>
    </mxGraphModel>
  </diagram>
</mxfile>
